<svg width="70" height="40" viewBox="0 0 70 40" fill="none" xmlns="http://www.w3.org/2000/svg">
<path fill-rule="evenodd" clip-rule="evenodd" d="M50.7119 14.9481C51.5339 13.6122 52.4497 12.3526 53.3674 11.1972C55.1168 8.99447 57.7917 5.78962 60.8515 5.78962C62.3669 5.78962 63.7596 6.35439 64.8644 7.39722C66.0264 8.49375 66.6646 9.94932 66.6646 11.553C66.6646 12.973 66.027 14.2397 65.207 15.3537C66.0682 15.8913 66.8503 16.5848 67.5418 17.4232C69.1897 19.4222 70.0001 21.8009 70.0001 24.3976C70.0001 27.5171 68.8349 30.26 66.5502 32.3729C64.3271 34.4288 61.6047 35.4451 58.5899 35.4451C55.5494 35.4451 52.8186 34.3906 50.7048 32.1749C50.3835 31.8385 50.0891 31.4885 49.8198 31.1256C49.3841 31.6988 48.8796 32.2351 48.3057 32.73C46.1629 34.5789 43.5684 35.4445 40.7541 35.4445C38.2341 35.4445 35.8858 34.7167 33.8208 33.2617C31.3664 31.5325 29.8947 29.0445 29.8947 26.0026C29.8947 25.9968 29.8947 25.991 29.8947 25.9852L26.7944 31.8844C25.7384 33.8938 24.0334 35.5027 21.6477 35.5027C20.2326 35.5027 18.9189 34.9955 17.879 34.0277C17.7807 33.9365 17.6862 33.842 17.5963 33.745C15.7665 34.89 13.6682 35.4438 11.4059 35.4438C10.1752 35.4438 8.95538 35.2717 7.77541 34.9198C6.37436 34.5025 5.06585 33.8517 3.91416 32.9428C2.24961 31.6289 1.15576 29.8331 1.15576 27.6652C1.15576 26.2084 1.65384 24.8505 2.62687 23.7708C2.92057 23.4454 3.2432 23.1627 3.58961 22.924C3.06389 22.0364 2.77983 20.9534 2.77983 19.7547C2.77983 19.0638 2.86659 18.3353 2.95271 17.6503L3.64873 12.1042C3.86468 10.3828 4.48744 8.71694 5.90777 7.63723C7.15201 6.69078 8.72851 6.45983 10.2465 6.45983H16.1335C19.6844 6.45983 22.7011 8.37084 22.7011 12.2239C22.7011 14.2701 22.1214 15.9417 20.7808 16.8992C21.1869 17.396 21.2673 17.7622 21.5681 18.3036L26.241 9.41173C27.3034 7.39075 29.0219 5.78833 31.4166 5.78833C32.8099 5.78833 34.1088 6.27805 35.1454 7.21608C35.1898 7.25619 35.2328 7.29695 35.2759 7.3377C35.4353 7.24972 35.5972 7.16433 35.7624 7.08282C37.3659 6.2884 39.0819 5.84591 40.8711 5.84591C43.3962 5.84591 45.7028 6.67267 47.6173 8.33267C49.5975 10.0502 50.6482 12.3384 50.7125 14.9455L50.7119 14.9481Z" fill="#850001"/>
<path fill-rule="evenodd" clip-rule="evenodd" d="M49.5556 13.6577C50.3776 12.3218 51.2934 11.0623 52.2111 9.90686C53.9605 7.7041 56.6354 4.49926 59.6952 4.49926C61.2107 4.49926 62.604 5.06402 63.7088 6.10685C64.8707 7.20338 65.5089 8.65895 65.5089 10.2627C65.5089 11.6827 64.8714 12.9493 64.0513 14.0633C64.9125 14.6009 65.6947 15.2944 66.3862 16.1328C68.034 18.1318 68.8444 20.5105 68.8444 23.1073C68.8444 26.2267 67.6793 28.9697 65.3945 31.0825C63.1715 33.1384 60.4491 34.1547 57.4342 34.1547C54.3937 34.1547 51.6629 33.1009 49.5491 30.8845C49.2278 30.5481 48.9335 30.1982 48.6642 29.8352C48.2284 30.4084 47.7239 30.9447 47.15 31.4396C45.0073 33.2885 42.4128 34.1541 39.5985 34.1541C37.0785 34.1541 34.7301 33.4263 32.6652 31.9714C30.2108 30.2422 28.739 27.7535 28.739 24.7123C28.739 24.7065 28.739 24.7006 28.739 24.6948L25.6387 30.5941C24.5828 32.6034 22.8778 34.2123 20.4921 34.2123C19.0769 34.2123 17.7633 33.7051 16.7234 32.738C16.6251 32.6461 16.5306 32.5523 16.4406 32.4553C14.6109 33.6003 12.5125 34.1541 10.2503 34.1541C9.01955 34.1541 7.79974 33.982 6.61977 33.6301C5.21872 33.2128 3.91021 32.562 2.75852 31.6531C1.09397 30.3392 0.00012207 28.5433 0.00012207 26.3755C0.00012207 24.9193 0.498202 23.5608 1.47123 22.4811C1.76493 22.1557 2.08756 21.8729 2.43397 21.6336C1.90825 20.746 1.62418 19.6631 1.62418 18.4643C1.62418 17.7734 1.71095 17.045 1.79707 16.3599L2.49309 10.8138C2.70904 9.09239 3.3318 7.42657 4.75213 6.34686C5.99637 5.40042 7.57287 5.16882 9.09089 5.16882H14.9779C18.5287 5.16882 21.5455 7.07982 21.5455 10.9329C21.5455 12.9791 20.6939 14.4955 19.3526 15.4529C19.7588 15.9497 20.1116 16.4705 20.4124 17.0126L25.0854 8.12072C26.1477 6.09909 27.8663 4.49731 30.2609 4.49731C31.6542 4.49731 32.9531 4.98703 33.9898 5.92571C34.0341 5.96582 34.0772 6.00658 34.1202 6.04734C34.2796 5.95935 34.4416 5.87396 34.6067 5.79245C36.2102 4.99803 37.9262 4.55554 39.7154 4.55554C42.2405 4.55554 44.5471 5.3823 46.4617 7.0423C48.4418 8.75987 49.4926 11.048 49.5569 13.6551L49.5556 13.6577ZM32.2243 18.0652L31.268 19.885C31.9724 19.3817 32.7757 19.0537 33.6446 18.9379C33.6421 18.8596 33.6401 18.78 33.6401 18.7005C33.6401 18.6694 33.6401 18.6383 33.6408 18.6073C33.1433 18.4947 32.6678 18.3129 32.2237 18.0658L32.2243 18.0652Z" fill="#F43A3B"/>
<path fill-rule="evenodd" clip-rule="evenodd" d="M49.9154 13.0868C50.641 11.9618 51.4257 10.8963 52.211 9.90651C53.9604 7.70375 56.6353 4.4989 59.6951 4.4989C61.2105 4.4989 62.6039 5.06366 63.708 6.1065C63.8848 6.2734 64.0486 6.44807 64.201 6.6305L64.1483 6.58004C63.0435 5.53721 61.6501 4.97245 60.1353 4.97245C57.0755 4.97245 54.4007 8.17729 52.6513 10.3801C51.7335 11.5355 50.817 12.795 49.9957 14.1309L49.5555 13.6574L49.9154 13.0868ZM64.5782 14.4188C65.1553 14.8386 65.6933 15.3329 66.1875 15.8989C65.6643 15.3704 65.0981 14.9156 64.4927 14.5378L64.5788 14.4194L64.5782 14.4188ZM49.6705 31.0103C49.6294 30.9689 49.5889 30.9275 49.549 30.8848C49.3832 30.7108 49.2238 30.5329 49.0722 30.3524L49.1049 30.3097C49.2823 30.5484 49.4706 30.7826 49.6711 31.0103H49.6705ZM31.2679 30.7988C29.926 29.45 29.0603 27.7867 28.8128 25.868L29.1798 25.1693C29.1798 25.1751 29.1798 25.1809 29.1798 25.1861C29.1798 27.3662 29.9356 29.2624 31.2679 30.7982V30.7988ZM2.02446 31.0058C0.779576 29.7721 0 28.2072 0 26.3771C0 24.9202 0.49808 23.5624 1.4711 22.4826C1.76481 22.1572 2.08744 21.8745 2.43385 21.6352C1.90813 20.7476 1.62406 19.6647 1.62406 18.4659C1.62406 17.775 1.71083 17.0466 1.79695 16.3615L2.49297 10.8154C2.70891 9.09398 3.33168 7.42816 4.75201 6.34845C5.99624 5.402 7.57275 5.1704 9.09077 5.1704H14.9778C17.1725 5.1704 19.1636 5.90078 20.3635 7.36929C19.1469 6.21777 17.3628 5.6446 15.418 5.6446H9.53101C8.01299 5.6446 6.43713 5.87555 5.19225 6.82264C3.77191 7.90235 3.14915 9.56817 2.93321 11.2896L2.23718 16.8357C2.15106 17.5214 2.0643 18.2492 2.0643 18.9401C2.0643 20.1388 2.34837 21.2211 2.87408 22.1094C2.52703 22.3481 2.20441 22.6308 1.91134 22.9568C0.938319 24.0365 0.440239 25.3951 0.440239 26.8513C0.440239 28.4544 1.03922 29.8543 2.02446 31.0065V31.0058ZM20.4117 17.0142L25.0846 8.1223C26.147 6.10132 27.8649 4.4989 30.2601 4.4989C31.6535 4.4989 32.9524 4.98862 33.989 5.9273C34.0333 5.96741 34.0764 6.00817 34.1188 6.04892C34.2782 5.96094 34.4408 5.87555 34.6053 5.79468C36.2088 5.00026 37.9248 4.55777 39.714 4.55777C42.2391 4.55777 44.5457 5.38454 46.4603 7.04453C46.8061 7.3447 47.1235 7.66234 47.4128 7.99615C47.2495 7.83248 47.0792 7.67334 46.9012 7.51873C44.9866 5.85873 42.68 5.03196 40.1549 5.03196C38.365 5.03196 36.6497 5.47446 35.0462 6.26888C34.8817 6.35039 34.7197 6.43513 34.5597 6.52376C34.5166 6.48301 34.4736 6.44225 34.4299 6.40214C33.3939 5.46346 32.0944 4.97439 30.701 4.97439C28.3057 4.97439 26.5879 6.57616 25.5255 8.59779L20.8525 17.4897L20.4123 17.0162L20.4117 17.0142ZM32.2512 19.325C32.6754 19.14 33.124 19.0113 33.5918 18.944L33.6413 18.6056L34.0816 19.0792C34.0809 19.1102 34.0809 19.1413 34.0809 19.173C34.0809 19.2526 34.0822 19.3321 34.0848 19.4104C33.2159 19.5262 32.4125 19.8542 31.7081 20.3575L31.2679 19.884C31.6618 19.5974 31.8019 19.5126 32.2512 19.325Z" fill="#FF6161"/>
<path d="M10.1214 16.0343C10.8753 15.859 11.5617 15.7716 12.1851 15.7716C14.099 15.7716 15.6556 16.4819 16.8542 17.9026C17.9949 19.2456 18.565 20.8901 18.565 22.836C18.565 25.1714 17.806 27.1076 16.2886 28.6453C14.7706 30.1824 12.8522 30.9516 10.5321 30.9516C9.62333 30.9516 8.74349 30.8248 7.89322 30.5719C6.84886 30.2607 5.95039 29.8033 5.19588 29.1998C4.24856 28.4603 3.7749 27.6232 3.7749 26.6891C3.7749 26.0861 3.96321 25.5751 4.34046 25.1565C4.71772 24.7379 5.19588 24.529 5.77622 24.529C6.22096 24.529 6.93177 24.8305 7.90801 25.434C8.88424 26.0376 9.73966 26.3391 10.4742 26.3391C11.3444 26.3391 12.0642 26.0227 12.6349 25.39C13.2057 24.7573 13.4904 24.0037 13.4904 23.1278C13.4904 22.2324 13.2635 21.5072 12.8091 20.9528C12.3547 20.3984 11.6928 20.1209 10.8226 20.1209C10.3778 20.1209 9.77886 20.2477 9.02435 20.5006C8.27048 20.7536 7.6805 20.8804 7.25568 20.8804C6.01851 20.8804 5.39961 20.1797 5.39961 18.7785C5.39961 18.4479 5.44781 17.8929 5.54485 17.1146L6.24088 11.5679C6.37649 10.5173 6.67598 9.81673 7.14 9.46609C7.54617 9.15493 8.2904 8.99902 9.37333 8.99902H15.2603C17.3098 8.99902 18.3343 9.74815 18.3343 11.2471C18.3343 12.7259 17.3677 13.4654 15.4345 13.4654H10.4466L10.1227 16.0343H10.1214ZM20.7745 31.0098C20.2283 31.0098 19.7642 30.83 19.378 30.4697C18.9911 30.1093 18.7976 29.6571 18.7976 29.1124C18.7976 28.6647 18.9326 28.188 19.2038 27.6821L28.4553 10.0794C29.0742 8.91168 29.7702 8.32816 30.5433 8.32816C31.0845 8.32816 31.5485 8.50348 31.9354 8.85346C32.3223 9.20344 32.5151 9.65111 32.5151 10.1965C32.5151 10.6247 32.3699 11.1157 32.0851 11.6611L22.8337 29.2638C22.2148 30.4263 21.5284 31.0105 20.7745 31.0105V31.0098ZM43.9125 18.6032C46.2711 19.8097 47.4504 21.6198 47.4504 24.0328C47.4504 26.0764 46.6869 27.7597 45.1593 29.0833C43.7094 30.3286 41.9497 30.9516 39.8809 30.9516C38.0634 30.9516 36.4201 30.436 34.9509 29.4042C33.3268 28.2559 32.5151 26.7964 32.5151 25.0252C32.5151 24.4611 32.7278 23.9351 33.1533 23.4486C33.5787 22.9621 34.0717 22.7189 34.6321 22.7189C35.251 22.7189 35.8211 23.0398 36.3429 23.6822C36.7877 24.2657 37.242 24.8596 37.7061 25.4631C38.325 26.1055 39.0692 26.4264 39.9394 26.4264C40.6933 26.4264 41.307 26.1586 41.7813 25.6236C42.255 25.0886 42.4915 24.4417 42.4915 23.6822C42.4915 22.8062 42.1727 22.1742 41.5345 21.7848C41.1476 21.5512 40.442 21.3468 39.4175 21.1715C38.0833 20.9379 37.4162 20.2179 37.4162 19.0114C37.4162 18.3496 37.5904 17.8534 37.9381 17.5228C38.2279 17.2505 38.7209 17.0364 39.4169 16.8804C40.9053 16.5298 41.6502 15.8001 41.6502 14.6913C41.6502 13.4654 41.0705 12.8521 39.9105 12.8521C39.0788 12.8521 38.3635 13.0856 37.7645 13.5527C37.726 13.5721 37.3102 14.0004 36.5177 14.8368C36.073 15.3039 35.6186 15.5374 35.1546 15.5374C34.5942 15.5374 34.1205 15.3382 33.7336 14.939C33.3467 14.5399 33.1539 14.0586 33.1539 13.4938C33.1539 12.9097 33.3377 12.3067 33.7047 11.6837C34.2851 10.672 35.1932 9.86395 36.431 9.26102C37.591 8.6775 38.78 8.38509 39.9979 8.38509C41.7183 8.38509 43.2074 8.9298 44.4639 10.0199C45.7203 11.1099 46.3489 12.5111 46.3489 14.2235C46.3489 15.9554 45.5365 17.4148 43.9125 18.6025V18.6032ZM57.8909 16.7058C58.7418 16.6081 59.3022 16.5596 59.5728 16.5596C61.3517 16.5596 62.8209 17.2699 63.9809 18.6905C65.0831 20.0141 65.6339 21.59 65.6339 23.4195C65.6339 25.5796 64.8608 27.3748 63.3138 28.8051C61.7675 30.2355 59.9012 30.951 57.7167 30.951C55.5322 30.951 53.7436 30.2212 52.3516 28.7618C50.9595 27.3023 50.2635 25.4631 50.2635 23.2442C50.2635 20.1888 51.9165 16.579 55.2224 12.4141C57.3876 9.68928 58.9731 8.32751 59.9783 8.32751C60.5972 8.32751 61.1383 8.54617 61.6024 8.98414C62.0664 9.4221 62.2984 9.95258 62.2984 10.5749C62.2984 11.1002 61.9308 11.8105 61.1962 12.7059C60.6358 13.3289 60.0798 13.9512 59.5284 14.5742C58.977 15.1972 58.4313 15.9075 57.8896 16.7051L57.8909 16.7058ZM55.1941 23.4926C55.1941 24.276 55.4551 24.967 55.9769 25.5751C56.4988 26.1832 57.1466 26.4846 57.9198 26.4846C58.6929 26.4846 59.3407 26.1832 59.8626 25.5751C60.3845 24.967 60.6454 24.276 60.6454 23.4926C60.6454 22.6898 60.3896 21.9989 59.8767 21.4244C59.3645 20.8454 58.7122 20.5582 57.9191 20.5582C57.1267 20.5582 56.4737 20.8454 55.9615 21.4244C55.4493 21.9989 55.1929 22.6898 55.1929 23.4926H55.1941Z" fill="#850001"/>
<path d="M9.83967 15.7213C10.5935 15.546 11.2799 15.4586 11.9033 15.4586C13.8172 15.4586 15.3738 16.169 16.5724 17.5896C17.7132 18.9326 18.2833 20.5771 18.2833 22.523C18.2833 24.8584 17.5242 26.7946 16.0069 28.3323C14.4888 29.8694 12.5704 30.6386 10.2503 30.6386C9.34159 30.6386 8.46176 30.5118 7.61149 30.2589C6.56712 29.9477 5.66865 29.4903 4.91414 28.8868C3.96682 28.1473 3.49316 27.3102 3.49316 26.3761C3.49316 25.7731 3.68147 25.2621 4.05873 24.8435C4.43598 24.425 4.91414 24.216 5.49448 24.216C5.93922 24.216 6.64939 24.5175 7.62627 25.121C8.6025 25.7246 9.45792 26.0261 10.1925 26.0261C11.0627 26.0261 11.7825 25.7097 12.3532 25.077C12.9233 24.4444 13.2086 23.6907 13.2086 22.8148C13.2086 21.9194 12.9818 21.1942 12.5267 20.6398C12.0724 20.0848 11.4104 19.8079 10.5402 19.8079C10.0955 19.8079 9.49648 19.9347 8.74197 20.1876C7.9881 20.4406 7.39811 20.5674 6.97266 20.5674C5.73549 20.5674 5.11658 19.8668 5.11658 18.4655C5.11658 18.1343 5.16479 17.5799 5.26183 16.8016L5.95786 11.2549C6.09346 10.2044 6.39296 9.50374 6.85697 9.15311C7.26315 8.84194 8.00738 8.68603 9.0903 8.68603H14.9773C17.0268 8.68603 18.0512 9.43516 18.0512 10.9341C18.0512 12.4129 17.0847 13.1524 15.1508 13.1524H10.1629L9.83903 15.7213H9.83967ZM20.4928 30.6968C19.9465 30.6968 19.4825 30.517 19.0963 30.1567C18.7094 29.7963 18.5166 29.3441 18.5166 28.7994C18.5166 28.3518 18.6515 27.875 18.9227 27.3691L28.1742 9.76639C28.7924 8.5987 29.4891 8.01517 30.2622 8.01517C30.8034 8.01517 31.2674 8.19049 31.6543 8.54047C32.0412 8.8911 32.234 9.33813 32.234 9.88348C32.234 10.3117 32.0888 10.8028 31.804 11.3481L22.5526 28.9508C21.9337 30.1133 21.2473 30.6975 20.4934 30.6975L20.4928 30.6968ZM43.6307 18.2902C45.9894 19.4967 47.1687 21.3068 47.1687 23.7198C47.1687 25.7634 46.4052 27.4467 44.8775 28.7703C43.4276 30.0156 41.668 30.6386 39.5992 30.6386C37.7817 30.6386 36.1383 30.123 34.6691 29.0912C33.0451 27.9429 32.2334 26.4835 32.2334 24.7122C32.2334 24.1481 32.4461 23.6221 32.8715 23.1356C33.297 22.6492 33.7899 22.4059 34.3504 22.4059C34.9693 22.4059 35.5393 22.7268 36.0612 23.3692C36.5059 23.9533 36.9603 24.5466 37.4243 25.1501C38.0432 25.7925 38.7875 26.1134 39.6576 26.1134C40.4115 26.1134 41.0253 25.8456 41.4996 25.3106C41.9732 24.7756 42.2098 24.128 42.2098 23.3692C42.2098 22.4932 41.891 21.8612 41.2528 21.4718C40.8659 21.2382 40.1602 21.0338 39.1358 20.8585C37.8016 20.6249 37.1345 19.9049 37.1345 18.6984C37.1345 18.0366 37.3086 17.5404 37.6563 17.2099C37.9462 16.9375 38.4391 16.7234 39.1351 16.5675C40.6236 16.2168 41.3685 15.4871 41.3685 14.3783C41.3685 13.1524 40.7888 12.5391 39.6287 12.5391C38.7971 12.5391 38.0818 12.7726 37.4828 13.2397C37.4442 13.2591 37.0284 13.6874 36.236 14.5245C35.7913 14.9916 35.3369 15.2251 34.8729 15.2251C34.3124 15.2251 33.8388 15.0258 33.4519 14.6267C33.065 14.2275 32.8722 13.7462 32.8722 13.1821C32.8722 12.598 33.056 11.995 33.423 11.372C34.0027 10.3603 34.9114 9.55226 36.1492 8.94933C37.3093 8.36516 38.4982 8.0734 39.7161 8.0734C41.4366 8.0734 42.9257 8.6181 44.1821 9.70816C45.4386 10.7982 46.0671 12.1995 46.0671 13.9119C46.0671 15.6437 45.2548 17.1031 43.6314 18.2909L43.6307 18.2902ZM57.6091 16.3928C58.46 16.2951 59.0204 16.2466 59.291 16.2466C61.0693 16.2466 62.5391 16.9569 63.6992 18.3775C64.8014 19.7011 65.3522 21.277 65.3522 23.1065C65.3522 25.2666 64.579 27.0618 63.0321 28.4921C61.4851 29.9225 59.6194 30.638 57.4349 30.638C55.2505 30.638 53.4619 29.9082 52.0698 28.4488C50.6778 26.9893 49.9817 25.1502 49.9817 22.9312C49.9817 19.8758 51.6347 16.266 54.9407 12.1011C57.1059 9.37629 58.6914 8.01453 59.6965 8.01453C60.3154 8.01453 60.8566 8.23319 61.3206 8.67115C61.7846 9.10912 62.0166 9.63959 62.0166 10.2619C62.0166 10.7872 61.649 11.4975 60.9144 12.3929C60.354 13.0152 59.7981 13.6382 59.2467 14.2612C58.6959 14.8842 58.1496 15.5945 57.6078 16.3921L57.6091 16.3928ZM54.9118 23.1796C54.9118 23.9631 55.1727 24.654 55.6946 25.2621C56.2164 25.8702 56.8642 26.1716 57.6374 26.1716C58.4105 26.1716 59.0584 25.8702 59.5802 25.2621C60.1021 24.654 60.363 23.9631 60.363 23.1796C60.363 22.3768 60.1072 21.6859 59.5944 21.1121C59.0821 20.5331 58.4298 20.2458 57.6367 20.2458C56.8443 20.2458 56.1913 20.5331 55.6791 21.1121C55.1669 21.6865 54.9105 22.3774 54.9105 23.1796H54.9118Z" fill="white"/>
<path d="M10.4205 15.6016C10.9501 15.5065 11.4437 15.4593 11.9032 15.4593C13.3351 15.4593 14.5671 15.8571 15.5986 16.6522C14.6809 16.0952 13.6224 15.817 12.4238 15.817C11.8003 15.817 11.114 15.9044 10.3601 16.0797L9.83759 15.7181L10.4205 15.6023V15.6016ZM5.58945 29.3642C5.35294 29.2167 5.128 29.0576 4.91463 28.8868C3.96731 28.1473 3.49365 27.3102 3.49365 26.3761C3.49365 25.7731 3.68196 25.2621 4.05921 24.8435C4.43647 24.425 4.91463 24.216 5.49497 24.216C5.93971 24.216 6.64988 24.5175 7.62676 25.121C8.60299 25.7246 9.45841 26.0261 10.193 26.0261C11.0632 26.0261 11.783 25.7097 12.3537 25.0771C12.9238 24.4444 13.2091 23.6907 13.2091 22.8148C13.2091 21.9194 12.9822 21.1949 12.5279 20.6398C12.4655 20.5635 12.3987 20.4923 12.328 20.4263C12.6082 20.5628 12.8486 20.753 13.0484 20.9976C13.5028 21.552 13.7297 22.2772 13.7297 23.1725C13.7297 24.0484 13.4443 24.8021 12.8743 25.4348C12.3042 26.0675 11.5838 26.3838 10.7136 26.3838C9.97898 26.3838 9.12357 26.0824 8.14733 25.4788C7.17109 24.8752 6.46028 24.5737 6.01555 24.5737C5.43584 24.5737 4.95704 24.7827 4.57979 25.2013C4.20253 25.6198 4.01423 26.1309 4.01423 26.7338C4.01423 27.668 4.48789 28.5044 5.4352 29.2445C5.48597 29.2853 5.53739 29.3254 5.58945 29.3648V29.3642ZM6.12095 20.4199C5.45191 20.1469 5.11707 19.4954 5.11707 18.4649C5.11707 18.1343 5.16527 17.5792 5.26232 16.801L5.95835 11.2543C6.09331 10.2037 6.39344 9.50309 6.85746 9.15246C7.26364 8.84129 8.00787 8.68538 9.09015 8.68538H14.9771C16.1378 8.68538 16.9695 8.92604 17.4727 9.40605C16.9797 9.16346 16.3216 9.04248 15.4977 9.04248H9.61072C8.5278 9.04248 7.78357 9.19839 7.37804 9.50956C6.91402 9.86019 6.61453 10.5602 6.47892 11.6114L5.78289 17.1581C5.68649 17.9363 5.63765 18.4914 5.63765 18.822C5.63765 19.5368 5.79896 20.0692 6.12095 20.4192V20.4199ZM19.6109 30.5086C19.4258 30.4213 19.2542 30.3042 19.0955 30.1567C18.7086 29.797 18.5151 29.3441 18.5151 28.7994C18.5151 28.3518 18.6507 27.875 18.9213 27.3691L28.1727 9.76639C28.7916 8.5987 29.4877 8.01517 30.2608 8.01517C30.8026 8.01517 31.266 8.19049 31.6529 8.54047L31.6792 8.56441C31.408 8.43632 31.1092 8.37227 30.782 8.37227C30.0089 8.37227 29.3129 8.9558 28.6939 10.1235L19.4432 27.7262C19.1726 28.2321 19.037 28.7089 19.037 29.1565C19.037 29.6987 19.2285 30.1496 19.6115 30.5086H19.6109ZM44.2026 18.6091C44.4288 18.7463 44.6415 18.8899 44.842 19.04C44.6242 18.9028 44.3934 18.7722 44.1505 18.648L44.2026 18.6098V18.6091ZM35.0263 29.3293C34.9061 29.2529 34.7866 29.1734 34.669 29.0905C33.0449 27.9423 32.2332 26.4828 32.2332 24.7115C32.2332 24.1474 32.4459 23.6215 32.8714 23.135C33.2969 22.6485 33.7898 22.4053 34.3502 22.4053C34.8168 22.4053 35.2564 22.5877 35.6677 22.9532C35.4119 22.8264 35.1465 22.7624 34.8714 22.7624C34.311 22.7624 33.8181 23.0056 33.3926 23.4921C32.9672 23.9786 32.7544 24.5039 32.7544 25.0686C32.7544 26.7791 33.5122 28.1991 35.027 29.3286L35.0263 29.3293ZM38.2134 25.7589C38.6485 25.995 39.1299 26.1128 39.6575 26.1128C40.4114 26.1128 41.0251 25.8449 41.4994 25.3099C41.9731 24.7749 42.2096 24.128 42.2096 23.3685C42.2096 22.6686 42.0059 22.1245 41.5984 21.7351C41.6627 21.7655 41.7205 21.7965 41.7732 21.8282C42.4114 22.2177 42.7302 22.8497 42.7302 23.7256C42.7302 24.4845 42.4937 25.132 42.02 25.667C41.5464 26.202 40.9326 26.4699 40.1781 26.4699C39.4306 26.4699 38.7757 26.2331 38.2134 25.7583V25.7589ZM38.232 20.5784C37.5007 20.2187 37.1343 19.5918 37.1343 18.6984C37.1343 18.0366 37.3085 17.5404 37.6562 17.2099C37.946 16.9375 38.439 16.7234 39.135 16.5675C40.6235 16.2168 41.3683 15.4871 41.3683 14.3783C41.3683 13.7864 41.2327 13.3374 40.9628 13.0314C41.5804 13.2733 41.8889 13.8413 41.8889 14.736C41.8889 15.8455 41.1447 16.5752 39.6556 16.9252C38.9596 17.0811 38.4666 17.2952 38.1768 17.5676C37.8291 17.8988 37.6549 18.395 37.6549 19.0562C37.6549 19.7037 37.8471 20.2116 38.232 20.579V20.5784ZM34.0385 15.0491C33.8245 14.9502 33.6285 14.8091 33.4511 14.6261C33.0642 14.2269 32.8714 13.7456 32.8714 13.1808C32.8714 12.5973 33.0552 11.9937 33.4222 11.3707C34.0019 10.359 34.9106 9.55096 36.1484 8.94803C37.3085 8.36451 38.4975 8.0721 39.7153 8.0721C41.2706 8.0721 42.6363 8.51718 43.8131 9.40799C42.7597 8.7559 41.5676 8.42985 40.2366 8.42985C39.0187 8.42985 37.8297 8.72161 36.6697 9.30578C35.4325 9.90871 34.5237 10.7167 33.9434 11.7285C33.5758 12.3515 33.3926 12.9544 33.3926 13.5386C33.3926 14.1027 33.5861 14.5847 33.9723 14.9838C33.9942 15.0064 34.0167 15.0284 34.0392 15.0498L34.0385 15.0491ZM58.4387 16.3035C58.8365 16.2653 59.1206 16.2459 59.2902 16.2459C60.5795 16.2459 61.7067 16.6192 62.6707 17.3664C61.8282 16.8579 60.8751 16.6037 59.8108 16.6037C59.5402 16.6037 58.9792 16.6522 58.1289 16.7499L57.6141 16.3941L58.4387 16.3042V16.3035ZM53.4592 29.5835C52.9591 29.2736 52.4958 28.8952 52.0697 28.4488C50.6776 26.9893 49.9816 25.1502 49.9816 22.9312C49.9816 19.8758 51.6346 16.266 54.9405 12.1011C57.1057 9.37629 58.6912 8.01453 59.697 8.01453C60.2877 8.01453 60.8082 8.21442 61.2581 8.61357C60.94 8.45249 60.5929 8.37227 60.2183 8.37227C59.2131 8.37227 57.6276 9.73469 55.4618 12.4589C52.1558 16.6237 50.5028 20.2336 50.5028 23.289C50.5028 25.5079 51.1988 27.3464 52.5909 28.8065C52.8653 29.0944 53.1545 29.3532 53.4598 29.5841L53.4592 29.5835ZM56.5003 25.9096C56.8429 26.0843 57.2221 26.1716 57.6372 26.1716C58.4104 26.1716 59.0582 25.8702 59.5801 25.2621C60.1019 24.654 60.3635 23.9631 60.3635 23.1796C60.3635 22.3768 60.1071 21.6859 59.5949 21.1121C59.519 21.0267 59.4406 20.9478 59.359 20.8747C59.6379 21.017 59.8905 21.2149 60.1154 21.4692C60.6277 22.043 60.8841 22.7339 60.8841 23.5367C60.8841 24.3202 60.6232 25.0111 60.1013 25.6192C59.5794 26.2273 58.9316 26.5287 58.1585 26.5287C57.5203 26.5287 56.9676 26.323 56.501 25.9096H56.5003Z" fill="#EBECEC"/>
</svg>
