<svg width="71" height="40" viewBox="0 0 71 40" fill="none" xmlns="http://www.w3.org/2000/svg">
<path fill-rule="evenodd" clip-rule="evenodd" d="M48.7242 12.4479C51.1833 10.1477 54.218 8.97693 57.6197 8.97693C58.8298 8.97693 60.0283 9.13839 61.1961 9.44752C62.4029 9.76719 63.5517 10.2516 64.6193 10.8869C65.6746 11.5157 66.6337 12.2751 67.4711 13.1643C68.3946 14.1445 69.111 15.2796 69.6154 16.5177C70.1463 17.8232 70.4056 19.2017 70.4056 20.6061C70.4056 22.1071 70.1488 23.5879 69.6577 25.0094C69.0514 26.766 67.9937 28.5217 66.9799 30.0812L62.7036 36.6613C61.6128 38.3822 59.8237 39.3874 57.7473 39.3874H53.3575C51.426 39.3874 49.7371 38.2694 49.1077 36.4706C49.0166 36.2134 48.9503 35.953 48.9081 35.6917C48.72 36.624 48.2761 37.4791 47.5323 38.1558L47.4768 38.2053C46.55 39.0167 45.3689 39.3874 44.1398 39.3874H40.8938C39.6663 39.3874 38.4869 39.0175 37.56 38.2077L37.5302 38.1818L37.5012 38.155C36.5794 37.3161 36.1172 36.2029 36.0344 35.0077H30.2432C29.887 35.0077 29.535 34.9769 29.1929 34.9136L28.9196 35.9132C28.3688 37.9262 26.4572 39.3874 24.3211 39.3874H22.7648C21.5729 39.3874 20.5219 38.9388 19.7474 38.2199C17.8043 39.3339 15.6136 39.8962 13.2489 39.8962C12.0372 39.8962 10.8362 39.7347 9.66585 39.4248C8.46238 39.1059 7.31359 38.628 6.24596 37.996C5.19324 37.3728 4.23659 36.6085 3.39756 35.7274C2.4666 34.7481 1.74932 33.6179 1.23994 32.3773C0.70323 31.0702 0.445641 29.6917 0.445641 28.2824C0.445641 26.7733 0.71731 25.2901 1.21095 23.8621C1.8189 22.1023 2.8799 20.3424 3.89949 18.7822L8.17912 12.2321C9.26166 10.508 11.0474 9.48322 13.1272 9.48322H17.5285C19.4311 9.48322 21.0934 10.5648 21.7601 12.3213L21.775 12.3595L21.7891 12.3984C22.3018 13.8426 22.0334 15.3915 21.1041 16.6037L20.0017 18.1096C20.0589 18.1396 20.116 18.1696 20.1723 18.2013C20.989 18.6467 21.7328 19.1765 22.4004 19.785L24.288 12.8844C24.8388 10.8715 26.7512 9.41019 28.8865 9.41019H30.4428C32.9582 9.41019 34.8458 11.4094 34.8367 13.7234L36.6821 11.4142L36.7409 11.3477C37.7563 10.1915 39.1163 9.41506 40.7091 9.41506H44.1398C45.3581 9.41506 46.5243 9.77855 47.4495 10.5745C48.0583 11.097 48.4749 11.7388 48.7234 12.4455L48.7242 12.4479Z" fill="url(#paint0_linear)"/>
<path fill-rule="evenodd" clip-rule="evenodd" d="M28.2966 13.3452H30.0426C30.6712 13.3452 31.0614 13.8864 30.9007 14.4714L25.1393 35.5334C24.9985 36.0478 24.4692 36.4665 23.9209 36.4665H22.1749C21.5463 36.4665 21.1562 35.9253 21.316 35.3403L27.0774 14.2783C27.2191 13.7623 27.7458 13.3452 28.2958 13.3452H28.2966Z" fill="#264181"/>
<path fill-rule="evenodd" clip-rule="evenodd" d="M51.7509 35.1051L55.8673 29.4256C55.7183 29.441 55.5725 29.4516 55.4391 29.4516C54.0559 29.4516 52.7564 29.1221 51.5463 28.4658C50.3312 27.8069 49.3605 26.8917 48.6341 25.7315C47.8953 24.5501 47.5383 23.2609 47.5383 21.8759C47.5383 19.4581 48.4718 17.4134 50.2484 15.7404C52.0615 14.0325 54.2406 13.1927 56.7552 13.1927C57.6564 13.1927 58.5484 13.3145 59.4189 13.5449C60.3076 13.7802 61.1508 14.1364 61.9377 14.6045C62.7146 15.067 63.4186 15.6228 64.0357 16.2775C64.6693 16.9501 65.1563 17.7266 65.5017 18.5761C65.8686 19.4775 66.0425 20.426 66.0425 21.3956C66.0425 22.5234 65.8479 23.6325 65.4793 24.7002C64.9708 26.1729 64.0141 27.7225 63.1643 29.0305L58.8772 35.6268C58.425 36.3505 57.7549 36.7497 56.8836 36.7497H52.4938C52.0573 36.7497 51.6921 36.5566 51.5529 36.1461C51.4163 35.7728 51.5024 35.4094 51.7525 35.1043L51.7509 35.1051ZM13.0901 21.0215C13.2359 21.0086 13.38 21.0004 13.5183 21.0004C14.9015 21.0004 16.2085 21.3274 17.4169 21.9862C18.632 22.6491 19.6027 23.5684 20.3283 24.7311C21.0671 25.914 21.429 27.2049 21.429 28.5915C21.429 31.0069 20.4964 33.0475 18.719 34.7165C16.9001 36.4236 14.7127 37.2584 12.1956 37.2584C11.292 37.2584 10.3983 37.1367 9.5261 36.9063C8.63737 36.671 7.79089 36.3189 7.00321 35.8532C6.22713 35.3939 5.52311 34.8317 4.90523 34.1818C4.26747 33.5108 3.7821 32.7384 3.43341 31.8889C3.06317 30.9883 2.89172 30.0438 2.89172 29.0735C2.89172 27.9384 3.10127 26.826 3.47234 25.7526C3.98172 24.2791 4.94001 22.7286 5.79395 21.4224L10.091 14.8455C10.5366 14.1193 11.2017 13.7031 12.0738 13.7031H16.4752C16.9142 13.7031 17.2703 13.8954 17.4294 14.3157C17.5627 14.6921 17.4824 15.0532 17.238 15.355L13.0901 21.0224V21.0215ZM44.6494 26.8739H46.3655C46.749 26.8739 47.1731 26.942 47.4563 27.2406C47.6965 27.5132 47.7686 27.8743 47.7686 28.2256V31.0029C47.7686 31.3623 47.6932 31.7323 47.4398 31.9984C47.1706 32.2921 46.7515 32.3708 46.3655 32.3708H44.6494V35.3988C44.6494 35.7712 44.5773 36.1704 44.28 36.4406C44.0075 36.6791 43.6306 36.7505 43.2753 36.7505H40.0293C39.674 36.7505 39.298 36.6791 39.0197 36.4357C38.7281 36.1704 38.6561 35.7712 38.6561 35.3988V32.3708H29.3795C28.9936 32.3708 28.5803 32.2921 28.316 32.0033C28.0585 31.7323 27.9831 31.3615 27.9831 31.0021V28.2191C27.9831 27.9822 28.0237 27.7445 28.133 27.5319C28.2548 27.2933 28.4212 27.0524 28.5753 26.8317L28.5819 26.8219L38.5285 14.3749C38.8598 13.9976 39.3096 13.6341 39.8446 13.6341H43.2753C43.6323 13.6341 44.0017 13.7055 44.2775 13.9424C44.5814 14.2037 44.6494 14.628 44.6494 15.0029V26.8739ZM9.81516 26.671C9.189 27.2641 8.88585 27.9716 8.88585 28.8252C8.88585 29.6836 9.19314 30.396 9.81765 30.998C10.4521 31.6098 11.2033 31.8978 12.0921 31.8978C12.9866 31.8978 13.7428 31.6057 14.3863 30.9956C15.0183 30.3968 15.333 29.686 15.333 28.8252C15.333 27.0653 13.8488 25.7858 12.0921 25.7858C11.2066 25.7858 10.4529 26.0674 9.81516 26.671ZM34.8171 26.8739H38.6561V21.9635L34.8171 26.8739Z" fill="#002B8F"/>
<path fill-rule="evenodd" clip-rule="evenodd" d="M49.4392 25.286L49.3134 25.0759L49.1957 24.8633L49.0864 24.6483L48.9845 24.4308L48.8909 24.2109L48.8056 23.9886L48.7286 23.7639L48.6599 23.5367L48.5994 23.3071L48.5464 23.0742L48.5017 22.8389L48.4652 22.6012L48.4371 22.361L48.4163 22.1185L48.4039 21.8734L48.3998 21.6251L48.4097 21.2L48.4404 20.783L48.4909 20.3732L48.5621 19.9716L48.6532 19.5781L48.765 19.1919L48.8967 18.8138L49.0491 18.443L49.2214 18.0803L49.4136 17.725L49.6264 17.3777L49.8592 17.0377L50.1126 16.7059L50.3859 16.3822L50.68 16.0657L50.9939 15.7574L51.225 15.531C51.3161 15.4385 51.4089 15.3469 51.5049 15.2568C53.2319 13.6276 55.3108 12.813 57.7484 12.813C58.6031 12.813 59.4579 12.9258 60.3127 13.1521C61.1674 13.3785 61.9758 13.7185 62.7328 14.1704C63.4948 14.6231 64.1649 15.1554 64.7488 15.7777C65.3319 16.3943 65.7999 17.1237 66.1411 17.9619C66.4816 18.7992 66.6555 19.6933 66.6555 20.6434C66.6555 21.6901 66.4758 22.7537 66.1121 23.8288C65.7196 24.9436 64.9625 26.3635 63.8361 28.0779L59.5449 34.6799C59.4463 34.8373 59.3386 34.9744 59.2202 35.0929L58.7091 35.5935L58.5236 35.7558L58.3232 35.8888L58.107 35.9927L57.8751 36.0665L57.6274 36.1111L57.3649 36.1257H52.9751L52.8658 36.1201L52.7664 36.1038L52.6778 36.0762L52.5991 36.0373L52.5312 35.987L52.474 35.9253L52.4276 35.8531L52.392 35.7696L52.3655 35.6803L52.3514 35.5919L52.3506 35.5042L52.3622 35.4174L52.3862 35.3314L52.4235 35.2462L52.4732 35.1618L52.5361 35.0783L57.1736 28.6799L56.9458 28.714L56.7387 28.744L56.5515 28.7692L56.385 28.7902L56.2384 28.8065L56.1125 28.8178L56.0065 28.8251L55.9204 28.8276L55.6736 28.8235L55.4284 28.813L55.1857 28.7943L54.9447 28.7692L54.7062 28.7359L54.4693 28.6953L54.2349 28.6475L54.0021 28.5923L53.7711 28.5298L53.5425 28.46L53.3155 28.3829L53.0911 28.2986L52.8683 28.2069L52.6479 28.1079L52.4293 28.0016L52.2123 27.888L51.9986 27.7688L51.7907 27.643L51.5878 27.5115L51.3906 27.3744L51.1985 27.2316L51.0121 27.0832L50.8307 26.929L50.6551 26.7692L50.4845 26.6036L50.3197 26.4324L50.1598 26.2556L50.0058 26.073L49.8567 25.8848L49.7126 25.6909L49.5734 25.4913L49.4401 25.286H49.4392ZM4.26753 31.4986L4.20541 31.3412L4.14743 31.1821L4.0936 31.0223L4.04307 30.8608L3.99752 30.6986L3.95528 30.5347L3.91718 30.37L3.88322 30.2036L3.85257 30.0357L3.82607 29.8669L3.80371 29.6965L3.78548 29.5245L3.7714 29.3509L3.76146 29.1765L3.75567 29.0004L3.75318 28.8227L3.75567 28.6296L3.76229 28.4357L3.77306 28.2401L3.78797 28.0446L3.80785 27.8475L3.83187 27.6495L3.86003 27.4507L3.89233 27.2511L3.9296 27.0507L3.97101 26.8495L4.01657 26.6475L4.06709 26.4438L4.12176 26.2393L4.18139 26.0341L4.24517 25.828L4.31309 25.6203L4.39094 25.4077L4.47708 25.1878L4.57233 24.9606L4.67586 24.727L4.78851 24.486L4.90943 24.2377L5.03947 23.983L5.17779 23.7209L5.32439 23.4515L5.48011 23.1757L5.6441 22.8925L5.81721 22.602L5.9986 22.3051L6.18827 22.0008L6.38622 21.6901L6.59329 21.372L10.8961 14.787L11.051 14.5623L11.2208 14.3667L11.7318 13.8661C12.0863 13.5059 12.5319 13.3241 13.0645 13.3241H17.4659C17.7723 13.3241 17.9686 13.4426 18.0606 13.686C18.1467 13.9294 18.1003 14.1607 17.9214 14.3822L13.255 20.7578C13.8207 20.6669 14.2365 20.6223 14.5082 20.6223C15.8309 20.6223 17.0733 20.9331 18.2221 21.5619C19.3767 22.1899 20.301 23.0613 20.9943 24.1752C21.6933 25.2901 22.0395 26.512 22.0395 27.8418C22.0395 29.9797 21.2784 31.8288 19.7602 33.389C19.6591 33.4929 19.5548 33.5959 19.4462 33.6973L18.9352 34.198L18.772 34.3481L18.6064 34.4933L18.4391 34.6337L18.2693 34.7691L18.0978 34.8998L17.9239 35.0264L17.7483 35.1472L17.5702 35.2641L17.3905 35.376L17.2083 35.4831L17.0244 35.5854L16.8381 35.6827L16.65 35.7752L16.4595 35.8637L16.2674 35.9472L16.0727 36.0259L15.8764 36.0998L15.6777 36.1687L15.4772 36.2328L15.2743 36.2929L15.0689 36.3481L14.8618 36.3984L14.6531 36.4438L14.4419 36.4844L14.2282 36.5201L14.0129 36.5509L13.7958 36.5769L13.5764 36.5979L13.3544 36.615L13.1308 36.6272L12.9046 36.6345L12.6769 36.6369L12.5154 36.6353L12.3538 36.6312L12.1932 36.6247L12.0325 36.6158L11.8718 36.6036L11.7111 36.589L11.5504 36.572L11.3898 36.5525L11.2291 36.5298L11.0684 36.5046L10.9077 36.4771L10.747 36.4462L10.5863 36.413L10.4265 36.3773L10.2658 36.3391L10.1051 36.2977L9.94526 36.2539L9.78624 36.2077L9.62887 36.159L9.47233 36.1071L9.31661 36.0527L9.16256 35.9959L9.00933 35.9367L8.85693 35.8742L8.70618 35.8093L8.55627 35.742L8.40718 35.6722L8.25975 35.6L8.11315 35.5245L7.96738 35.4474L7.82243 35.3671L7.67914 35.2844L7.39919 35.1107L7.12669 34.929L6.86247 34.7391L6.60654 34.542L6.35806 34.3367L6.11787 34.1241L5.88678 33.9042L5.66398 33.6771L5.55465 33.5602L5.44863 33.441L5.34593 33.3193L5.24571 33.1951L5.14797 33.0677L5.05355 32.9379L4.96244 32.8057L4.87382 32.671L4.78768 32.5339L4.70485 32.3943L4.62451 32.2515L4.54748 32.1063L4.47294 31.9586L4.40088 31.8085L4.33214 31.6552L4.26588 31.4994L4.26753 31.4986ZM15.9907 29.7444L16.0446 29.587L16.0901 29.4264L16.1274 29.2625L16.1564 29.0953L16.1771 28.9249L16.1895 28.7513L16.1937 28.5736L16.1746 28.2109L16.1191 27.8621L16.028 27.5278L15.9046 27.2105L15.7497 26.9103L15.5658 26.6296L15.3555 26.3692L15.1202 26.1298L14.8618 25.914L14.5819 25.7225L14.2837 25.557L13.9681 25.4182L13.6368 25.3079L13.2923 25.2276L12.9369 25.1781L12.5725 25.161L12.387 25.1651L12.2048 25.1765L12.0267 25.1959L11.8519 25.2227L11.6805 25.2576L11.5132 25.2998C11.0319 25.4466 10.6377 25.6397 10.2501 25.9594C9.74648 26.5582 9.49635 27.26 9.49635 28.0722C9.49635 29.028 9.84256 29.8369 10.5416 30.5103C11.2407 31.1838 12.0838 31.5172 13.0827 31.5172C14.5413 31.5172 15.5004 30.955 15.9899 29.7436L15.9907 29.7444ZM29.0748 31.4986L29.0201 31.4328L28.9729 31.3598L28.9332 31.2787L28.9009 31.1894L28.876 31.0921L28.8578 30.9866L28.847 30.873L28.8437 30.7521V27.9692L28.8454 27.8961L28.8503 27.8255L28.8586 27.7566L28.8702 27.69L28.8851 27.626L28.9042 27.5643L28.9265 27.5051L28.953 27.4483L28.9845 27.3898L29.0218 27.3241L29.0648 27.2519L29.1137 27.1732L29.1684 27.088L29.2297 26.9955L29.2968 26.8974L29.3696 26.7927L39.298 14.3684L39.4314 14.2248L39.9424 13.7241C40.253 13.4126 40.5537 13.256 40.8369 13.256H44.2676C44.603 13.256 44.8515 13.3298 45.0188 13.471C45.1803 13.6122 45.2615 13.8726 45.2615 14.2515V26.4949H47.3587C47.7455 26.4949 48.0113 26.5736 48.1612 26.7326C48.3062 26.8965 48.3807 27.1399 48.3807 27.4742V30.2515C48.3807 30.5858 48.3054 30.8341 48.1496 30.9988C48.1364 31.0134 48.1231 31.0264 48.1082 31.0393L47.6386 31.4994L47.5765 31.557L47.5044 31.6073L47.4216 31.6503L47.328 31.6852L47.2236 31.7128L47.1085 31.7322L46.9835 31.7444L46.8476 31.7485H45.2623V34.6483C45.2623 35.0158 45.182 35.2649 45.0196 35.4117L44.5086 35.9124L44.444 35.9627L44.3703 36.0065L44.2883 36.0438L44.198 36.0738L44.0995 36.0973L43.9934 36.1144L43.8791 36.1249L43.7574 36.1282H40.5114L40.3897 36.1249L40.2754 36.1144L40.1693 36.0973L40.0708 36.0738L39.9805 36.0438L39.8985 36.0065L39.8248 35.9627L39.7594 35.9124L39.7022 35.8523L39.6533 35.7825L39.6119 35.703L39.578 35.613L39.5515 35.5124L39.5324 35.402L39.5208 35.2811L39.5167 35.1489V31.7485H29.86L29.7241 31.7444L29.5999 31.7322L29.4864 31.7128L29.3829 31.6852L29.2901 31.6503L29.2081 31.6073L29.1361 31.557L29.0748 31.4994V31.4986ZM39.5167 26.4941V20.7659L35.0383 26.4941H39.5167Z" fill="#B3B3B3"/>
<path d="M48.9735 21.088C48.9735 18.8024 49.8399 16.8446 51.5668 15.221C53.2937 13.5918 55.3727 12.7772 57.8102 12.7772C58.665 12.7772 59.5198 12.89 60.3745 13.1164C61.2293 13.3427 62.0377 13.6827 62.7947 14.1346C63.5567 14.5874 64.2268 15.1196 64.8107 15.7419C65.3938 16.3586 65.8618 17.088 66.203 17.9261C66.5434 18.7634 66.7174 19.6575 66.7174 20.6076C66.7174 21.6543 66.5376 22.718 66.174 23.793C65.7814 24.9078 65.0244 26.3277 63.898 28.0421L59.6067 34.6441C59.2141 35.2721 58.6592 35.5894 57.9378 35.5894H53.548C53.2424 35.5894 53.0452 35.4709 52.9649 35.2332C52.8779 34.9955 52.9243 34.7634 53.109 34.5427L57.7465 28.1443C57.1112 28.2409 56.6954 28.2912 56.4933 28.2912C55.1706 28.2912 53.9348 27.9796 52.7852 27.3516C51.6306 26.7293 50.712 25.8579 50.013 24.7488C49.3197 23.634 48.9735 22.4178 48.9735 21.088ZM4.32774 28.2847C4.32774 27.2551 4.51244 26.1914 4.88764 25.0831C5.28024 23.9683 6.04224 22.5484 7.16867 20.834L11.4715 14.2482C11.8641 13.6089 12.4182 13.2859 13.1288 13.2859H17.5302C17.8367 13.2859 18.033 13.4044 18.1249 13.6478C18.2111 13.8912 18.1647 14.1233 17.9858 14.344L13.3193 20.7196C13.885 20.6287 14.3017 20.5841 14.5725 20.5841C15.8952 20.5841 17.1376 20.8949 18.2864 21.5237C19.441 22.1517 20.3654 23.0231 21.0586 24.137C21.7577 25.2519 22.1039 26.4738 22.1039 27.8028C22.1039 30.0827 21.2375 32.0348 19.5106 33.6583C17.7779 35.2819 15.6931 36.0965 13.2506 36.0965C12.39 36.0965 11.5353 35.9837 10.6805 35.7565C9.82574 35.5301 9.01735 35.191 8.25535 34.7439C7.49832 34.292 6.82246 33.7541 6.23936 33.1374C5.64964 32.5208 5.1883 31.7963 4.84209 30.9589C4.50084 30.1216 4.32774 29.2332 4.32774 28.2823V28.2847ZM10.606 25.6145C9.90691 26.2766 9.56069 27.0798 9.56069 28.0364C9.56069 28.9922 9.90691 29.8011 10.606 30.4746C11.305 31.148 12.1482 31.4815 13.1471 31.4815C14.1459 31.4815 14.9949 31.148 15.7056 30.4746C16.4162 29.8011 16.7682 28.9914 16.7682 28.0364C16.7682 26.0705 15.1134 24.6247 13.1471 24.6247C12.1482 24.6247 11.3042 24.9525 10.606 25.6145ZM29.4183 30.2141V27.4312C29.4183 27.2332 29.453 27.0571 29.5276 26.9103C29.603 26.7634 29.7413 26.5427 29.9434 26.2539L39.8717 13.8296C40.2296 13.4223 40.5758 13.2186 40.8996 13.2186H44.3303C44.6657 13.2186 44.9142 13.2924 45.0815 13.4336C45.243 13.5748 45.3242 13.8352 45.3242 14.2141V26.4575H47.4213C47.8081 26.4575 48.074 26.5362 48.2239 26.6953C48.3689 26.8592 48.4434 27.1026 48.4434 27.4368V30.2141C48.4434 30.5484 48.368 30.7967 48.2123 30.9614C48.0624 31.1253 47.7966 31.2105 47.4213 31.2105H45.3242V34.6109C45.3242 34.9784 45.2439 35.2275 45.0815 35.3744C44.92 35.5163 44.6657 35.5894 44.3303 35.5894H41.0843C40.7489 35.5894 40.4954 35.5163 40.3331 35.3744C40.1716 35.2275 40.0904 34.9784 40.0904 34.6109V31.2105H30.4337C30.0585 31.2105 29.7984 31.1253 29.6485 30.9614C29.4928 30.7975 29.4174 30.5484 29.4174 30.2141H29.4183ZM35.1018 26.4575H40.0921V20.0754L35.1018 26.4575Z" fill="white"/>
<path fill-rule="evenodd" clip-rule="evenodd" d="M25.1488 35.2981L25.1099 35.3362L24.7156 35.7224L24.6063 35.8198L24.4845 35.9001L24.3537 35.961L24.2178 35.9999L24.0803 36.0137H22.3344L22.2035 35.9999L22.0884 35.9618L21.9906 35.9009L21.9128 35.8206L21.8573 35.7232L21.8258 35.6113L21.82 35.4879L21.8424 35.3557L27.6038 14.2937L27.6534 14.1614L27.7263 14.0381L27.8191 13.9261L28.2523 13.5018C28.4212 13.3265 28.6573 13.2113 28.8876 13.2113H30.6335C31.0029 13.2113 31.2233 13.5091 31.1247 13.8685L25.3633 34.9305C25.326 35.0652 25.249 35.1918 25.148 35.2965L25.1488 35.2981Z" fill="url(#paint1_linear)"/>
<path d="M57.7976 23.1676L55.5985 24.7148C55.1579 25.067 54.6096 24.7035 54.7827 24.1696L55.6375 21.5392C54.849 20.9899 54.0605 20.4414 53.272 19.8913C52.838 19.5887 53.0798 18.9948 53.6099 18.9923L56.455 19.0053C56.7217 18.1721 56.9884 17.3388 57.2559 16.5055C57.3387 16.2451 57.5706 16.1063 57.7984 16.0974C58.0253 16.1055 58.2581 16.2451 58.3409 16.5055C58.6084 17.3388 58.8743 18.1721 59.1418 19.0053L61.9869 18.9923C62.517 18.9948 62.7589 19.5887 62.3248 19.8913C61.5363 20.4414 60.7478 20.9899 59.9593 21.5392L60.8141 24.1696C60.9872 24.7035 60.4389 25.067 59.9983 24.7148L57.7992 23.1676H57.7976Z" fill="url(#paint2_linear)"/>
<path d="M53.1104 19.2641C53.199 19.1092 53.3763 18.9931 53.6098 18.9915L56.4549 19.0045L56.3729 19.2617L53.2545 19.2471C53.204 19.2471 53.1559 19.2536 53.1104 19.2633V19.2641ZM57.3171 16.3717C57.4256 16.198 57.6136 16.1047 57.7975 16.0974C58.0253 16.1063 58.2572 16.2451 58.34 16.5055C58.6075 17.3388 58.8734 18.1721 59.1409 19.0053L61.986 18.9923C62.5161 18.9948 62.758 19.5887 62.324 19.8913L62.039 20.0901C62.372 19.7761 62.1285 19.2503 61.6299 19.2479L58.7848 19.2609C58.5181 18.4276 58.2514 17.5944 57.9839 16.7611C57.901 16.5007 57.6691 16.3619 57.4414 16.353C57.3999 16.3546 57.3577 16.3603 57.3163 16.3708L57.3171 16.3717ZM59.9609 21.5384L60.8132 24.1704C60.9292 24.5282 60.7213 24.809 60.4388 24.8495C60.496 24.7343 60.5101 24.5883 60.4571 24.426L59.6023 21.7875L59.9601 21.5384H59.9609Z" fill="#FF6600"/>
<path d="M5.92384 5.80851H7.27391C7.44784 5.80851 7.60272 5.87667 7.72117 6.00081C7.83878 6.12413 7.89924 6.27586 7.89924 6.44462V7.37849C7.89924 7.55699 7.77003 7.69005 7.58699 7.69005H4.71209C4.53733 7.69005 4.38245 7.62271 4.26235 7.49857C4.14391 7.37606 4.08344 7.22352 4.08344 7.05557V0.496551C4.08344 0.317241 4.21182 0.18499 4.3957 0.18499H5.61158C5.79629 0.18499 5.92384 0.317241 5.92384 0.496551V5.80851ZM12.2186 0C13.3252 0 14.2777 0.387018 15.0604 1.15294C15.8439 1.91886 16.2373 2.85274 16.2373 3.93671C16.2373 5.02068 15.8431 5.95456 15.0604 6.72048C14.2777 7.4864 13.326 7.87504 12.2186 7.87504C11.1112 7.87504 10.1604 7.4864 9.37686 6.72048C8.59415 5.95456 8.19825 5.02068 8.19825 3.93671C8.19825 2.85274 8.59415 1.91886 9.37686 1.15294C10.1604 0.386207 11.1112 0 12.2186 0V0ZM18.2078 2.06653H16.8544C16.6697 2.06653 16.5364 1.9359 16.5364 1.75497V0.496551C16.5364 0.314807 16.6689 0.18499 16.8544 0.18499H21.4761C21.6625 0.18499 21.7942 0.313996 21.7942 0.496551V1.43042C21.7942 1.60324 21.7287 1.75659 21.6045 1.87911C21.4811 2.00162 21.322 2.06653 21.1465 2.06653H20.1252V7.37849C20.1252 7.55942 19.9919 7.69005 19.8072 7.69005H18.5258C18.3403 7.69005 18.2078 7.56024 18.2078 7.37849V2.06653ZM26.116 0C27.2226 0 28.1751 0.387018 28.9578 1.15294C29.7413 1.91886 30.1347 2.85274 30.1347 3.93671C30.1347 5.02068 29.7405 5.95456 28.9578 6.72048C28.1751 7.4864 27.2226 7.87504 26.116 7.87504C25.0086 7.87504 24.0578 7.4864 23.2743 6.72048C22.4916 5.95456 22.0956 5.02068 22.0956 3.93671C22.0956 2.85274 22.4916 1.91886 23.2743 1.15294C24.0578 0.386207 25.0086 0 26.116 0V0ZM13.7037 2.48113C13.2921 2.0787 12.7992 1.88073 12.2178 1.88073C11.6364 1.88073 11.1435 2.07708 10.7319 2.48032C10.3203 2.88357 10.1173 3.36551 10.1173 3.9359C10.1173 4.50628 10.3194 4.98742 10.7319 5.39148C11.1435 5.79472 11.6347 5.9935 12.2178 5.9935C12.8001 5.9935 13.2912 5.79472 13.7037 5.39148C14.1162 4.98823 14.3158 4.50628 14.3158 3.9359C14.3158 3.36633 14.1162 2.88357 13.7037 2.48032V2.48113ZM27.6019 2.48113C27.1903 2.0787 26.6975 1.88073 26.116 1.88073C25.5346 1.88073 25.0418 2.07708 24.6301 2.48032C24.2185 2.88357 24.0164 3.36551 24.0164 3.9359C24.0164 4.50628 24.2185 4.98742 24.6301 5.39148C25.0418 5.79472 25.5338 5.9935 26.116 5.9935C26.6983 5.9935 27.1894 5.79472 27.6019 5.39148C28.0144 4.98823 28.214 4.50628 28.214 3.9359C28.214 3.36633 28.0144 2.88357 27.6019 2.48032V2.48113Z" fill="#2358BA"/>
<defs>
<linearGradient id="paint0_linear" x1="38.949" y1="36.4917" x2="38.949" y2="9.24062" gradientUnits="userSpaceOnUse">
<stop stop-color="#2358BA"/>
<stop offset="1" stop-color="#1795D7"/>
</linearGradient>
<linearGradient id="paint1_linear" x1="31.1482" y1="13.2113" x2="22.1465" y2="36.1419" gradientUnits="userSpaceOnUse">
<stop stop-color="#FFCD01"/>
<stop offset="1" stop-color="#FF8501"/>
</linearGradient>
<linearGradient id="paint2_linear" x1="58.9397" y1="17.3047" x2="51.5696" y2="25.3006" gradientUnits="userSpaceOnUse">
<stop stop-color="#FFCC00"/>
<stop offset="1" stop-color="#FF6600"/>
</linearGradient>
</defs>
</svg>
